<svg width="117" height="40" viewBox="0 0 117 40" fill="none" xmlns="http://www.w3.org/2000/svg">
<path d="M38.344 29.288C37.192 29.288 36.152 29.024 35.224 28.496C34.296 27.952 33.56 27.208 33.016 26.264C32.472 25.32 32.2 24.248 32.2 23.048C32.2 21.832 32.472 20.752 33.016 19.808C33.56 18.864 34.296 18.128 35.224 17.6C36.152 17.072 37.192 16.808 38.344 16.808C39.512 16.808 40.56 17.072 41.488 17.6C42.432 18.128 43.176 18.864 43.72 19.808C44.264 20.752 44.536 21.832 44.536 23.048C44.536 24.264 44.256 25.344 43.696 26.288C43.152 27.216 42.416 27.952 41.488 28.496C40.56 29.024 39.512 29.288 38.344 29.288ZM38.344 26.168C38.824 26.168 39.248 26.056 39.616 25.832C39.984 25.592 40.28 25.24 40.504 24.776C40.744 24.312 40.864 23.736 40.864 23.048C40.864 22.36 40.752 21.784 40.528 21.32C40.304 20.856 40 20.512 39.616 20.288C39.248 20.048 38.832 19.928 38.368 19.928C37.92 19.928 37.504 20.048 37.12 20.288C36.736 20.512 36.424 20.856 36.184 21.32C35.96 21.784 35.848 22.36 35.848 23.048C35.848 23.736 35.96 24.312 36.184 24.776C36.424 25.24 36.728 25.592 37.096 25.832C37.48 26.056 37.896 26.168 38.344 26.168ZM52.3188 29.288C51.2308 29.288 50.2708 29.112 49.4388 28.76C48.6068 28.392 47.9428 27.904 47.4468 27.296C46.9508 26.672 46.6708 25.968 46.6068 25.184H50.1828C50.2468 25.44 50.3668 25.68 50.5428 25.904C50.7348 26.112 50.9748 26.28 51.2628 26.408C51.5508 26.52 51.8788 26.576 52.2468 26.576C52.6468 26.576 52.9668 26.528 53.2068 26.432C53.4468 26.32 53.6228 26.184 53.7348 26.024C53.8628 25.848 53.9268 25.672 53.9268 25.496C53.9268 25.208 53.8308 24.992 53.6388 24.848C53.4628 24.704 53.1988 24.584 52.8468 24.488C52.4948 24.376 52.0788 24.264 51.5988 24.152C51.0708 24.008 50.5268 23.856 49.9668 23.696C49.4228 23.536 48.9188 23.336 48.4548 23.096C48.0068 22.84 47.6388 22.52 47.3508 22.136C47.0788 21.736 46.9428 21.24 46.9428 20.648C46.9428 19.944 47.1428 19.304 47.5428 18.728C47.9428 18.136 48.5188 17.672 49.2708 17.336C50.0228 16.984 50.9268 16.808 51.9828 16.808C53.4708 16.808 54.6468 17.144 55.5108 17.816C56.3748 18.472 56.8868 19.376 57.0468 20.528H53.6868C53.5908 20.208 53.3908 19.96 53.0868 19.784C52.7988 19.608 52.4308 19.52 51.9828 19.52C51.4708 19.52 51.0788 19.616 50.8068 19.808C50.5508 19.984 50.4228 20.192 50.4228 20.432C50.4228 20.64 50.5188 20.816 50.7108 20.96C50.9188 21.104 51.1988 21.232 51.5508 21.344C51.9188 21.44 52.3348 21.544 52.7988 21.656C53.6948 21.864 54.4948 22.088 55.1988 22.328C55.9028 22.568 56.4628 22.912 56.8788 23.36C57.2948 23.808 57.5028 24.456 57.5028 25.304C57.5188 26.056 57.3108 26.736 56.8788 27.344C56.4628 27.936 55.8628 28.408 55.0788 28.76C54.3108 29.112 53.3908 29.288 52.3188 29.288ZM65.4093 29C64.5293 29 63.7533 28.864 63.0813 28.592C62.4253 28.304 61.9053 27.84 61.5213 27.2C61.1533 26.56 60.9693 25.688 60.9693 24.584V20.096H58.9533V17.096H60.9693L61.3533 13.76H64.5693V17.096H67.6413V20.096H64.5693V24.632C64.5693 25.112 64.6813 25.456 64.9053 25.664C65.1293 25.856 65.4973 25.952 66.0093 25.952H67.6173V29H65.4093ZM74.4687 29.288C73.4607 29.288 72.6207 29.128 71.9487 28.808C71.2927 28.488 70.8047 28.064 70.4847 27.536C70.1647 26.992 70.0047 26.392 70.0047 25.736C70.0047 25.016 70.1887 24.384 70.5567 23.84C70.9247 23.28 71.4847 22.84 72.2367 22.52C73.0047 22.2 73.9887 22.04 75.1887 22.04H78.1167C78.1167 21.512 78.0447 21.08 77.9007 20.744C77.7567 20.392 77.5247 20.136 77.2047 19.976C76.9007 19.8 76.4927 19.712 75.9807 19.712C75.4207 19.712 74.9327 19.832 74.5167 20.072C74.1167 20.312 73.8687 20.68 73.7727 21.176H70.3167C70.3967 20.296 70.6847 19.536 71.1807 18.896C71.6767 18.24 72.3407 17.728 73.1727 17.36C74.0047 16.992 74.9487 16.808 76.0047 16.808C77.1567 16.808 78.1567 16.992 79.0047 17.36C79.8687 17.728 80.5327 18.28 80.9967 19.016C81.4767 19.736 81.7167 20.624 81.7167 21.68V29H78.7167L78.2847 27.248C78.1087 27.552 77.9007 27.832 77.6607 28.088C77.4207 28.328 77.1407 28.544 76.8207 28.736C76.5007 28.912 76.1487 29.048 75.7647 29.144C75.3807 29.24 74.9487 29.288 74.4687 29.288ZM75.3807 26.552C75.7647 26.552 76.1007 26.488 76.3887 26.36C76.6927 26.232 76.9487 26.064 77.1567 25.856C77.3647 25.632 77.5327 25.376 77.6607 25.088C77.7887 24.8 77.8847 24.488 77.9487 24.152H75.6207C75.2047 24.152 74.8607 24.208 74.5887 24.32C74.3327 24.416 74.1407 24.56 74.0127 24.752C73.8847 24.928 73.8207 25.144 73.8207 25.4C73.8207 25.656 73.8847 25.872 74.0127 26.048C74.1407 26.208 74.3247 26.336 74.5647 26.432C74.8047 26.512 75.0767 26.552 75.3807 26.552ZM90.1124 29C89.2324 29 88.4564 28.864 87.7844 28.592C87.1284 28.304 86.6084 27.84 86.2244 27.2C85.8564 26.56 85.6724 25.688 85.6724 24.584V20.096H83.6564V17.096H85.6724L86.0564 13.76H89.2724V17.096H92.3444V20.096H89.2724V24.632C89.2724 25.112 89.3844 25.456 89.6084 25.664C89.8324 25.856 90.2004 25.952 90.7124 25.952H92.3204V29H90.1124ZM100.739 29.288C99.4906 29.288 98.3866 29.032 97.4266 28.52C96.4826 28.008 95.7466 27.296 95.2186 26.384C94.6906 25.456 94.4266 24.392 94.4266 23.192C94.4266 21.96 94.6826 20.864 95.1946 19.904C95.7226 18.944 96.4586 18.192 97.4026 17.648C98.3626 17.088 99.4746 16.808 100.739 16.808C101.923 16.808 102.979 17.064 103.907 17.576C104.835 18.088 105.563 18.792 106.091 19.688C106.619 20.584 106.883 21.616 106.883 22.784C106.883 22.944 106.875 23.128 106.859 23.336C106.859 23.528 106.843 23.728 106.811 23.936H96.9706V21.824H103.211C103.163 21.2 102.907 20.688 102.443 20.288C101.995 19.888 101.435 19.688 100.763 19.688C100.251 19.688 99.7786 19.808 99.3466 20.048C98.9146 20.272 98.5786 20.624 98.3386 21.104C98.0986 21.568 97.9786 22.16 97.9786 22.88V23.576C97.9786 24.12 98.0826 24.608 98.2906 25.04C98.5146 25.456 98.8346 25.784 99.2506 26.024C99.6666 26.248 100.155 26.36 100.715 26.36C101.227 26.36 101.659 26.248 102.011 26.024C102.363 25.8 102.635 25.512 102.827 25.16H106.523C106.283 25.928 105.891 26.624 105.347 27.248C104.803 27.872 104.139 28.368 103.355 28.736C102.571 29.104 101.699 29.288 100.739 29.288Z" fill="white"/>
<path d="M0 14H4V32.6667C4 38.4 9.33333 39.9444 12 40H20.6667C26.5333 39.6 28.2222 34.7222 28.3333 32.3333V26H24V29.3333C23.4667 31.8667 21.7778 32.3889 21 32.3333H14C10.5333 32.3333 9.66667 30.3333 9.66667 29.3333V19.3333H7L17.5 10.3333L24.3333 16L23 14H28.3333V6.66667H12V0H4V6.66667H0V14Z" fill="#EC6326"/>
<path d="M25.3333 38.333L14 32.333L27.6667 34.9997C27 36.733 25.8333 37.9441 25.3333 38.333Z" fill="#D95C24"/>
<path d="M17.5 10.333L24.3333 15.9997L23 13.9997H27L17.5 10.333Z" fill="#BE4A15"/>
<rect x="13.6667" y="18" width="3" height="3" fill="#EC6326"/>
<rect x="13.6667" y="21.667" width="3" height="3" fill="#EC6326"/>
<rect x="17.3333" y="18" width="3" height="3" fill="#EC6326"/>
<rect x="17.3333" y="21.667" width="3" height="3" fill="#EC6326"/>
</svg>
