<svg width="117" height="40" viewBox="0 0 117 40" fill="none" xmlns="http://www.w3.org/2000/svg">
<path d="M38.368 29.288C37.2 29.288 36.152 29.016 35.224 28.472C34.296 27.928 33.56 27.184 33.016 26.24C32.472 25.28 32.2 24.192 32.2 22.976C32.2 21.728 32.472 20.632 33.016 19.688C33.56 18.728 34.296 17.976 35.224 17.432C36.168 16.888 37.216 16.616 38.368 16.616C39.552 16.616 40.608 16.888 41.536 17.432C42.464 17.976 43.2 18.728 43.744 19.688C44.288 20.632 44.56 21.72 44.56 22.952C44.56 24.184 44.288 25.28 43.744 26.24C43.2 27.184 42.464 27.928 41.536 28.472C40.608 29.016 39.552 29.288 38.368 29.288ZM38.368 26.168C38.848 26.168 39.272 26.048 39.64 25.808C40.024 25.568 40.328 25.208 40.552 24.728C40.776 24.248 40.888 23.656 40.888 22.952C40.888 22.248 40.776 21.656 40.552 21.176C40.328 20.696 40.032 20.336 39.664 20.096C39.296 19.856 38.872 19.736 38.392 19.736C37.912 19.736 37.48 19.856 37.096 20.096C36.728 20.336 36.432 20.696 36.208 21.176C35.984 21.656 35.872 22.248 35.872 22.952C35.872 23.656 35.984 24.248 36.208 24.728C36.432 25.208 36.728 25.568 37.096 25.808C37.48 26.048 37.904 26.168 38.368 26.168ZM52.3656 29.288C51.2296 29.288 50.2456 29.112 49.4136 28.76C48.5976 28.392 47.9496 27.896 47.4696 27.272C47.0056 26.648 46.7416 25.944 46.6776 25.16H50.2536C50.3176 25.432 50.4296 25.68 50.5896 25.904C50.7656 26.112 50.9976 26.28 51.2856 26.408C51.5896 26.52 51.9256 26.576 52.2936 26.576C52.6936 26.576 53.0136 26.528 53.2536 26.432C53.5096 26.32 53.7016 26.176 53.8296 26C53.9576 25.824 54.0216 25.64 54.0216 25.448C54.0216 25.144 53.9256 24.912 53.7336 24.752C53.5576 24.592 53.2936 24.464 52.9416 24.368C52.5896 24.256 52.1656 24.152 51.6696 24.056C51.0936 23.928 50.5176 23.784 49.9416 23.624C49.3816 23.448 48.8776 23.232 48.4296 22.976C47.9976 22.72 47.6456 22.392 47.3736 21.992C47.1176 21.576 46.9896 21.072 46.9896 20.48C46.9896 19.76 47.1896 19.112 47.5896 18.536C47.9896 17.944 48.5656 17.48 49.3176 17.144C50.0696 16.792 50.9816 16.616 52.0536 16.616C53.5736 16.616 54.7656 16.952 55.6296 17.624C56.4936 18.296 57.0056 19.2 57.1656 20.336H53.8056C53.7096 20.016 53.5096 19.776 53.2056 19.616C52.9016 19.44 52.5176 19.352 52.0536 19.352C51.5256 19.352 51.1256 19.44 50.8536 19.616C50.5816 19.792 50.4456 20.024 50.4456 20.312C50.4456 20.504 50.5336 20.68 50.7096 20.84C50.9016 20.984 51.1736 21.112 51.5256 21.224C51.8776 21.336 52.3096 21.448 52.8216 21.56C53.7976 21.768 54.6376 21.992 55.3416 22.232C56.0616 22.472 56.6216 22.824 57.0216 23.288C57.4216 23.736 57.6136 24.392 57.5976 25.256C57.6136 26.04 57.4056 26.736 56.9736 27.344C56.5576 27.952 55.9576 28.432 55.1736 28.784C54.3896 29.12 53.4536 29.288 52.3656 29.288ZM65.6219 29C64.7579 29 63.9899 28.864 63.3179 28.592C62.6459 28.304 62.1259 27.84 61.7579 27.2C61.3899 26.56 61.2059 25.688 61.2059 24.584V19.904H59.1419V16.904H61.2059L61.5899 13.496H64.8059V16.904H67.9019V19.904H64.8059V24.632C64.8059 25.112 64.9099 25.456 65.1179 25.664C65.3419 25.856 65.7179 25.952 66.2459 25.952H67.9019V29H65.6219ZM74.7974 29.288C73.7894 29.288 72.9494 29.128 72.2774 28.808C71.6214 28.488 71.1334 28.056 70.8134 27.512C70.5094 26.952 70.3574 26.336 70.3574 25.664C70.3574 24.944 70.5334 24.312 70.8854 23.768C71.2534 23.208 71.8214 22.768 72.5894 22.448C73.3574 22.112 74.3254 21.944 75.4934 21.944H78.4214C78.4214 21.4 78.3494 20.952 78.2054 20.6C78.0774 20.248 77.8614 19.984 77.5574 19.808C77.2534 19.632 76.8374 19.544 76.3094 19.544C75.7494 19.544 75.2774 19.656 74.8934 19.88C74.5094 20.104 74.2694 20.456 74.1734 20.936H70.7174C70.7974 20.072 71.0774 19.32 71.5574 18.68C72.0534 18.04 72.7094 17.536 73.5254 17.168C74.3414 16.8 75.2774 16.616 76.3334 16.616C77.4854 16.616 78.4854 16.808 79.3334 17.192C80.1814 17.56 80.8374 18.104 81.3014 18.824C81.7814 19.544 82.0214 20.44 82.0214 21.512V29H79.0214L78.5894 27.248C78.4134 27.552 78.2054 27.832 77.9654 28.088C77.7254 28.328 77.4454 28.544 77.1254 28.736C76.8054 28.912 76.4534 29.048 76.0694 29.144C75.6854 29.24 75.2614 29.288 74.7974 29.288ZM75.6854 26.552C76.0694 26.552 76.4054 26.488 76.6934 26.36C76.9814 26.232 77.2294 26.056 77.4374 25.832C77.6454 25.608 77.8134 25.352 77.9414 25.064C78.0854 24.76 78.1894 24.432 78.2534 24.08V24.056H75.9254C75.5254 24.056 75.1894 24.112 74.9174 24.224C74.6614 24.32 74.4694 24.464 74.3414 24.656C74.2134 24.848 74.1494 25.072 74.1494 25.328C74.1494 25.6 74.2134 25.832 74.3414 26.024C74.4854 26.2 74.6694 26.336 74.8934 26.432C75.1334 26.512 75.3974 26.552 75.6854 26.552ZM90.5828 29C89.7188 29 88.9508 28.864 88.2788 28.592C87.6068 28.304 87.0868 27.84 86.7188 27.2C86.3508 26.56 86.1668 25.688 86.1668 24.584V19.904H84.1028V16.904H86.1668L86.5508 13.496H89.7668V16.904H92.8628V19.904H89.7668V24.632C89.7668 25.112 89.8708 25.456 90.0788 25.664C90.3028 25.856 90.6788 25.952 91.2068 25.952H92.8628V29H90.5828ZM101.301 29.288C100.053 29.288 98.9571 29.032 98.0131 28.52C97.0691 27.992 96.3251 27.264 95.7811 26.336C95.2531 25.392 94.9891 24.312 94.9891 23.096C94.9891 21.848 95.2531 20.736 95.7811 19.76C96.3091 18.784 97.0451 18.016 97.9891 17.456C98.9331 16.896 100.029 16.616 101.277 16.616C102.493 16.616 103.557 16.88 104.469 17.408C105.381 17.936 106.093 18.656 106.605 19.568C107.133 20.464 107.397 21.504 107.397 22.688C107.397 22.848 107.389 23.032 107.373 23.24C107.373 23.432 107.357 23.632 107.325 23.84H97.5571V21.752H103.725C103.693 21.08 103.445 20.544 102.981 20.144C102.533 19.728 101.973 19.52 101.301 19.52C100.789 19.52 100.325 19.64 99.9091 19.88C99.4931 20.12 99.1571 20.48 98.9011 20.96C98.6611 21.44 98.5411 22.048 98.5411 22.784V23.504C98.5411 24.064 98.6451 24.56 98.8531 24.992C99.0771 25.424 99.3891 25.76 99.7891 26C100.205 26.24 100.693 26.36 101.253 26.36C101.781 26.36 102.213 26.256 102.549 26.048C102.901 25.824 103.173 25.544 103.365 25.208H107.037C106.813 25.976 106.429 26.672 105.885 27.296C105.341 27.904 104.677 28.392 103.893 28.76C103.109 29.112 102.245 29.288 101.301 29.288Z" fill="#181A20"/>
<path d="M0 14H4V32.6667C4 38.4 9.33333 39.9444 12 40H20.6667C26.5333 39.6 28.2222 34.7222 28.3333 32.3333V26H24V29.3333C23.4667 31.8667 21.7778 32.3889 21 32.3333H14C10.5333 32.3333 9.66667 30.3333 9.66667 29.3333V19.3333H7L17.5 10.3333L24.3333 16L23 14H28.3333V6.66667H12V0H4V6.66667H0V14Z" fill="#EC6326"/>
<path d="M25.3333 38.3333L14 32.3333L27.6667 35C27 36.7333 25.8333 37.9444 25.3333 38.3333Z" fill="#D95C24"/>
<path d="M17.5 10.3333L24.3333 16L23 14H27L17.5 10.3333Z" fill="#BE4A15"/>
<rect x="13.6667" y="18" width="3" height="3" fill="#EC6326"/>
<rect x="13.6667" y="21.6667" width="3" height="3" fill="#EC6326"/>
<rect x="17.3333" y="18" width="3" height="3" fill="#EC6326"/>
<rect x="17.3333" y="21.6667" width="3" height="3" fill="#EC6326"/>
</svg>
